# xmcd
#
# Track frame offsets: 
#        150
#        13907
#        35019
#        49689
#        67810
#        88400
#        100452
#        115499
#        130279
#        143511
#        159983
#        175291
#        187723
#        206086
#        216401
#        231693
#        245321
#        255724
#        273388
#
# Disc length: 3968 seconds
#
# Revision: 11
# Processed by: cddbd v1.5.2PL0 Copyright (c) Steve Scherf et al.
# Submitted via: ExactAudioCopy v0.99pb4
#
DISCID=1d0f7e13
DTITLE=Tony Bennet - Duets An American Classic
DYEAR=2006
DGENRE=Easy Listening
TTITLE0=Tony Bennett and Dixie Chicks - Lullaby Of Broadway
TTITLE1=Tony Bennett and Barbra Streisand - Smile
TTITLE2=Tony Bennett and James Taylor - Put On A Happy Face
TTITLE3=Tony Bennett and Paul McCartney - The Very Thought Of You
TTITLE4=Tony Bennett and Juanes - The Shadow Of Your Smile
TTITLE5=Tony Bennett and Elton John - Rags To Riches
TTITLE6=Tony Bennett and Billy Joel - The Good Life
TTITLE7=Tony Bennett and Tim McGraw - Cold, Cold Heart
TTITLE8=Tony Bennett and Celine Dion - If I Ruled The World
TTITLE9=Tony Bennett and Diana Krall - The Best Is Yet To Come
TTITLE10=Tony Bennett and Stevie Wonder - For Once In My Life
TTITLE11=Tony Bennett and Elvis Costello - Are You Havin' Any Fun?
TTITLE12=Tony Bennett and KD Lang - Because Of You
TTITLE13=Tony Bennett and Michael Bublé - Just In Time
TTITLE14=Tony Bennett and Sting - The Boulevard Of Broken Dreams
TTITLE15=Tony Bennett and Bono - I Wanna Be Around
TTITLE16=Tony Bennett and John Legend - Sing, You Sinners
TTITLE17=Tony Bennett - I Left My Heart In San Francisco
TTITLE18=Tony Bennett and George Michael - How Do You Keep The Music Pla
TTITLE18=ying?
EXTD=YEAR: 2006
EXTT0=
EXTT1=
EXTT2=
EXTT3=
EXTT4=
EXTT5=
EXTT6=
EXTT7=
EXTT8=
EXTT9=
EXTT10=
EXTT11=
EXTT12=
EXTT13=
EXTT14=
EXTT15=
EXTT16=
EXTT17=
EXTT18=
PLAYORDER=
